<svg id="visual" viewBox="0 0 900 300" width="900" height="300" xmlns="http://www.w3.org/2000/svg" xmlns:xlink="http://www.w3.org/1999/xlink" version="1.1"><rect x="0" y="0" width="900" height="300" fill="#202731"></rect><path d="M0 233L21.5 233.7C43 234.3 86 235.7 128.8 232.2C171.7 228.7 214.3 220.3 257.2 215.8C300 211.3 343 210.7 385.8 207.2C428.7 203.7 471.3 197.3 514.2 198C557 198.7 600 206.3 642.8 211.8C685.7 217.3 728.3 220.7 771.2 221.2C814 221.7 857 219.3 878.5 218.2L900 217L900 301L878.5 301C857 301 814 301 771.2 301C728.3 301 685.7 301 642.8 301C600 301 557 301 514.2 301C471.3 301 428.7 301 385.8 301C343 301 300 301 257.2 301C214.3 301 171.7 301 128.8 301C86 301 43 301 21.5 301L0 301Z" fill="#fa7268"></path><path d="M0 216L21.5 220C43 224 86 232 128.8 231.3C171.7 230.7 214.3 221.3 257.2 220.7C300 220 343 228 385.8 227.8C428.7 227.7 471.3 219.3 514.2 222C557 224.7 600 238.3 642.8 245C685.7 251.7 728.3 251.3 771.2 244.3C814 237.3 857 223.7 878.5 216.8L900 210L900 301L878.5 301C857 301 814 301 771.2 301C728.3 301 685.7 301 642.8 301C600 301 557 301 514.2 301C471.3 301 428.7 301 385.8 301C343 301 300 301 257.2 301C214.3 301 171.7 301 128.8 301C86 301 43 301 21.5 301L0 301Z" fill="#ef5f67"></path><path d="M0 264L21.5 263.2C43 262.3 86 260.7 128.8 256.7C171.7 252.7 214.3 246.3 257.2 246C300 245.7 343 251.3 385.8 253C428.7 254.7 471.3 252.3 514.2 248C557 243.7 600 237.3 642.8 238.3C685.7 239.3 728.3 247.7 771.2 253C814 258.3 857 260.7 878.5 261.8L900 263L900 301L878.5 301C857 301 814 301 771.2 301C728.3 301 685.7 301 642.8 301C600 301 557 301 514.2 301C471.3 301 428.7 301 385.8 301C343 301 300 301 257.2 301C214.3 301 171.7 301 128.8 301C86 301 43 301 21.5 301L0 301Z" fill="#e34c67"></path><path d="M0 271L21.5 271.2C43 271.3 86 271.7 128.8 267.8C171.7 264 214.3 256 257.2 254.3C300 252.7 343 257.3 385.8 262.3C428.7 267.3 471.3 272.7 514.2 275.3C557 278 600 278 642.8 276.2C685.7 274.3 728.3 270.7 771.2 268.8C814 267 857 267 878.5 267L900 267L900 301L878.5 301C857 301 814 301 771.2 301C728.3 301 685.7 301 642.8 301C600 301 557 301 514.2 301C471.3 301 428.7 301 385.8 301C343 301 300 301 257.2 301C214.3 301 171.7 301 128.8 301C86 301 43 301 21.5 301L0 301Z" fill="#d53867"></path><path d="M0 267L21.5 268.2C43 269.3 86 271.7 128.8 274.2C171.7 276.7 214.3 279.3 257.2 279C300 278.7 343 275.3 385.8 275C428.7 274.7 471.3 277.3 514.2 279C557 280.7 600 281.3 642.8 280.7C685.7 280 728.3 278 771.2 279.8C814 281.7 857 287.3 878.5 290.2L900 293L900 301L878.5 301C857 301 814 301 771.2 301C728.3 301 685.7 301 642.8 301C600 301 557 301 514.2 301C471.3 301 428.7 301 385.8 301C343 301 300 301 257.2 301C214.3 301 171.7 301 128.8 301C86 301 43 301 21.5 301L0 301Z" fill="#c62368"></path></svg>