<svg id="visual" viewBox="0 0 900 150" width="900" height="150" xmlns="http://www.w3.org/2000/svg" xmlns:xlink="http://www.w3.org/1999/xlink" version="1.1"><rect x="0" y="0" width="900" height="150" fill="#202731"></rect><path d="M0 38L12.5 38.7C25 39.3 50 40.7 75 47.5C100 54.3 125 66.7 150 68.5C175 70.3 200 61.7 225 63C250 64.3 275 75.7 300 73.2C325 70.7 350 54.3 375 49.5C400 44.7 425 51.3 450 52.2C475 53 500 48 525 44.8C550 41.7 575 40.3 600 43C625 45.7 650 52.3 675 56.2C700 60 725 61 750 59.8C775 58.7 800 55.3 825 58C850 60.7 875 69.3 887.5 73.7L900 78L900 151L887.5 151C875 151 850 151 825 151C800 151 775 151 750 151C725 151 700 151 675 151C650 151 625 151 600 151C575 151 550 151 525 151C500 151 475 151 450 151C425 151 400 151 375 151C350 151 325 151 300 151C275 151 250 151 225 151C200 151 175 151 150 151C125 151 100 151 75 151C50 151 25 151 12.5 151L0 151Z" fill="#fa7268"></path><path d="M0 102L12.5 99.2C25 96.3 50 90.7 75 84.5C100 78.3 125 71.7 150 73.7C175 75.7 200 86.3 225 85.8C250 85.3 275 73.7 300 72.3C325 71 350 80 375 86.7C400 93.3 425 97.7 450 99.3C475 101 500 100 525 98.3C550 96.7 575 94.3 600 94.3C625 94.3 650 96.7 675 98.2C700 99.7 725 100.3 750 95.8C775 91.3 800 81.7 825 80.3C850 79 875 86 887.5 89.5L900 93L900 151L887.5 151C875 151 850 151 825 151C800 151 775 151 750 151C725 151 700 151 675 151C650 151 625 151 600 151C575 151 550 151 525 151C500 151 475 151 450 151C425 151 400 151 375 151C350 151 325 151 300 151C275 151 250 151 225 151C200 151 175 151 150 151C125 151 100 151 75 151C50 151 25 151 12.5 151L0 151Z" fill="#ef5f67"></path><path d="M0 96L12.5 93.5C25 91 50 86 75 84.7C100 83.3 125 85.7 150 84.8C175 84 200 80 225 83.5C250 87 275 98 300 102.8C325 107.7 350 106.3 375 101.7C400 97 425 89 450 91C475 93 500 105 525 105.7C550 106.3 575 95.7 600 94.7C625 93.7 650 102.3 675 104.7C700 107 725 103 750 104.2C775 105.3 800 111.7 825 113.7C850 115.7 875 113.3 887.5 112.2L900 111L900 151L887.5 151C875 151 850 151 825 151C800 151 775 151 750 151C725 151 700 151 675 151C650 151 625 151 600 151C575 151 550 151 525 151C500 151 475 151 450 151C425 151 400 151 375 151C350 151 325 151 300 151C275 151 250 151 225 151C200 151 175 151 150 151C125 151 100 151 75 151C50 151 25 151 12.5 151L0 151Z" fill="#e34c67"></path><path d="M0 118L12.5 117.5C25 117 50 116 75 118.2C100 120.3 125 125.7 150 124C175 122.3 200 113.7 225 108.8C250 104 275 103 300 102.2C325 101.3 350 100.7 375 100.5C400 100.3 425 100.7 450 103.5C475 106.3 500 111.7 525 114.5C550 117.3 575 117.7 600 117.8C625 118 650 118 675 119C700 120 725 122 750 121C775 120 800 116 825 112.2C850 108.3 875 104.7 887.5 102.8L900 101L900 151L887.5 151C875 151 850 151 825 151C800 151 775 151 750 151C725 151 700 151 675 151C650 151 625 151 600 151C575 151 550 151 525 151C500 151 475 151 450 151C425 151 400 151 375 151C350 151 325 151 300 151C275 151 250 151 225 151C200 151 175 151 150 151C125 151 100 151 75 151C50 151 25 151 12.5 151L0 151Z" fill="#d53867"></path><path d="M0 125L12.5 124.7C25 124.3 50 123.7 75 124.2C100 124.7 125 126.3 150 126.7C175 127 200 126 225 126C250 126 275 127 300 127C325 127 350 126 375 126C400 126 425 127 450 125.7C475 124.3 500 120.7 525 121.3C550 122 575 127 600 130.2C625 133.3 650 134.7 675 132C700 129.3 725 122.7 750 119C775 115.3 800 114.7 825 119.3C850 124 875 134 887.5 139L900 144L900 151L887.5 151C875 151 850 151 825 151C800 151 775 151 750 151C725 151 700 151 675 151C650 151 625 151 600 151C575 151 550 151 525 151C500 151 475 151 450 151C425 151 400 151 375 151C350 151 325 151 300 151C275 151 250 151 225 151C200 151 175 151 150 151C125 151 100 151 75 151C50 151 25 151 12.5 151L0 151Z" fill="#c62368"></path></svg>